<svg id="Grupo_76740" data-name="Grupo 76740" xmlns="http://www.w3.org/2000/svg" xmlns:xlink="http://www.w3.org/1999/xlink" width="314.985" height="200.23" viewBox="0 0 314.985 200.23">
  <defs>
    <linearGradient id="linear-gradient" x1="0.5" y1="1" x2="0.5" gradientUnits="objectBoundingBox">
      <stop offset="0" stop-color="gray" stop-opacity="0.251"/>
      <stop offset="0.54" stop-color="gray" stop-opacity="0.122"/>
      <stop offset="1" stop-color="gray" stop-opacity="0.102"/>
    </linearGradient>
  </defs>
  <path id="Trazado_12377" data-name="Trazado 12377" d="M342.985,213.411a67.291,67.291,0,0,1-1.886,15.9,62.813,62.813,0,0,1-5.3,14.188,40.6,40.6,0,0,1-40.653,40.659H87.795a51.843,51.843,0,0,1-46.234-28.45,0,0,0,0,0,0,0,51.515,51.515,0,0,1-5.537-23.315A64.919,64.919,0,0,1,28,200.754c0-31.782,21.818-57.545,48.735-57.545.953,0,1.9.036,2.839.1,16.889-33.533,54.982-56.918,99.24-56.918,27.209,0,52.08,8.833,71.133,23.426a42.851,42.851,0,0,1,23.651-7.228c26.914,0,48.734,25.766,48.734,57.545q0,3.051-.275,6.019C334.708,176.549,342.985,193.837,342.985,213.411Z" transform="translate(-28 -86.39)" fill="#58bab0" opacity="0.1"/>
  <path id="Trazado_12378" data-name="Trazado 12378" d="M578.063,163.1c-.325,1.784-1.423,5.551-4.973,5.457a4.959,4.959,0,0,1-4.725-5.143l1.022-36.9.333-12.032s1.757-3.329,3.505,11.594v.055l4.857,35.386A4.95,4.95,0,0,1,578.063,163.1Z" transform="translate(-419.582 -106.521)" fill="#fff"/>
  <rect id="Rectángulo_148207" data-name="Rectángulo 148207" width="5.215" height="11.154" transform="translate(150.901 60.161)" fill="#fff"/>
  <rect id="Rectángulo_148208" data-name="Rectángulo 148208" width="4.012" height="4.895" transform="translate(151.542 68.666)" fill="#fff"/>
  <path id="Trazado_12379" data-name="Trazado 12379" d="M575.9,126.146a4.479,4.479,0,0,0-3.855.383l.333-12.032s1.757-3.329,3.505,11.594Z" transform="translate(-422.253 -106.528)" fill="#58bab0"/>
  <path id="Trazado_12380" data-name="Trazado 12380" d="M581.275,315.878v7.82H576.06v-7.665A7.049,7.049,0,0,1,581.275,315.878Z" transform="translate(-425.159 -252.383)" fill="#58bab0"/>
  <path id="Trazado_12381" data-name="Trazado 12381" d="M631.135,382.466c-1.462-1.074-4.364-3.712-2.726-6.861a4.96,4.96,0,0,1,6.693-1.993L667.815,390.7l10.669,5.573s2.219,3.029-11.961-1.927l-.052-.017-33.935-11.151a5.034,5.034,0,0,1-1.4-.716Z" transform="translate(-462.742 -294.111)" fill="#fff"/>
  <rect id="Rectángulo_148209" data-name="Rectángulo 148209" width="5.215" height="11.154" transform="translate(156.187 79.774) rotate(-64)" fill="#fff"/>
  <rect id="Rectángulo_148210" data-name="Rectángulo 148210" width="4.012" height="4.895" transform="translate(160.573 76.823) rotate(116)" fill="#fff"/>
  <path id="Trazado_12382" data-name="Trazado 12382" d="M767.93,440.836a4.465,4.465,0,0,0,1.344-3.626l10.669,5.573s2.219,3.029-11.961-1.927Z" transform="translate(-564.201 -340.617)" fill="#58bab0"/>
  <path id="Trazado_12383" data-name="Trazado 12383" d="M602.289,367.219l-7.029-3.428,2.285-4.681,6.883,3.359A7.045,7.045,0,0,1,602.289,367.219Z" transform="translate(-439.073 -284.02)" fill="#58bab0"/>
  <path id="Trazado_12384" data-name="Trazado 12384" d="M406.518,382.466c1.462-1.074,4.364-3.712,2.726-6.861a4.96,4.96,0,0,0-6.693-1.993L369.837,390.7l-10.669,5.573s-2.219,3.029,11.961-1.927l.052-.017,33.935-11.148A5.032,5.032,0,0,0,406.518,382.466Z" transform="translate(-267.894 -294.111)" fill="#fff"/>
  <rect id="Rectángulo_148211" data-name="Rectángulo 148211" width="11.154" height="5.215" transform="translate(138.517 79.974) rotate(-26)" fill="#fff"/>
  <rect id="Rectángulo_148212" data-name="Rectángulo 148212" width="4.012" height="4.895" transform="translate(150.843 74.676) rotate(64)" fill="#fff"/>
  <path id="Trazado_12385" data-name="Trazado 12385" d="M371.181,440.836a4.465,4.465,0,0,1-1.344-3.626l-10.669,5.573s-2.219,3.029,11.961-1.927Z" transform="translate(-267.894 -340.617)" fill="#58bab0"/>
  <path id="Trazado_12386" data-name="Trazado 12386" d="M544.639,367.219l7.029-3.428-2.285-4.681-6.883,3.359A7.045,7.045,0,0,0,544.639,367.219Z" transform="translate(-400.84 -284.02)" fill="#58bab0"/>
  <path id="Trazado_12387" data-name="Trazado 12387" d="M547.649,400.308H537.42l3.249-120.468H544.4Z" transform="translate(-389.449 -202.79)" fill="#fff"/>
  <circle id="Elipse_401" data-name="Elipse 401" cx="3.409" cy="3.409" r="3.409" transform="translate(150.1 72.157)" fill="#58bab0"/>
  <path id="Trazado_12388" data-name="Trazado 12388" d="M861.4,181.695c-.218,1.206-.961,3.753-3.362,3.689a3.356,3.356,0,0,1-3.2-3.478l.694-24.962.223-8.139s1.19-2.252,2.373,7.844v.036l3.285,23.954A3.378,3.378,0,0,1,861.4,181.695Z" transform="translate(-627.175 -131.465)" fill="#fff"/>
  <rect id="Rectángulo_148213" data-name="Rectángulo 148213" width="3.527" height="7.547" transform="translate(229.094 52.65)" fill="#fff"/>
  <rect id="Rectángulo_148214" data-name="Rectángulo 148214" width="2.715" height="3.312" transform="translate(229.526 58.404)" fill="#fff"/>
  <path id="Trazado_12389" data-name="Trazado 12389" d="M859.962,156.7a3.018,3.018,0,0,0-2.6.259l.223-8.139s1.19-2.252,2.373,7.844Z" transform="translate(-629.007 -131.472)" fill="#58bab0"/>
  <path id="Trazado_12390" data-name="Trazado 12390" d="M863.577,285.044v5.286H860.05v-5.179A4.761,4.761,0,0,1,863.577,285.044Z" transform="translate(-630.956 -230.139)" fill="#58bab0"/>
  <path id="Trazado_12391" data-name="Trazado 12391" d="M897.277,330.079c-.989-.724-2.954-2.508-1.845-4.639a3.354,3.354,0,0,1,4.529-1.349l22.132,11.564,7.217,3.769s1.5,2.057-8.089-1.305h-.036l-22.96-7.541A3.394,3.394,0,0,1,897.277,330.079Z" transform="translate(-656.358 -258.353)" fill="#fff"/>
  <rect id="Rectángulo_148215" data-name="Rectángulo 148215" width="3.527" height="7.547" transform="translate(232.669 65.92) rotate(-64)" fill="#fff"/>
  <rect id="Rectángulo_148216" data-name="Rectángulo 148216" width="2.715" height="3.312" transform="translate(235.639 63.925) rotate(116)" fill="#fff"/>
  <path id="Trazado_12392" data-name="Trazado 12392" d="M989.86,369.593a3.012,3.012,0,0,0,.909-2.453l7.217,3.769s1.5,2.057-8.089-1.305Z" transform="translate(-725.025 -289.839)" fill="#58bab0"/>
  <path id="Trazado_12393" data-name="Trazado 12393" d="M877.766,319.78,873,317.459l1.544-3.169,4.661,2.272A4.777,4.777,0,0,1,877.766,319.78Z" transform="translate(-640.341 -251.541)" fill="#58bab0"/>
  <path id="Trazado_12394" data-name="Trazado 12394" d="M745.347,330.079c.988-.724,2.954-2.508,1.845-4.639a3.354,3.354,0,0,0-4.529-1.349l-22.132,11.564-7.217,3.769s-1.5,2.057,8.089-1.305h.036l22.96-7.541A3.4,3.4,0,0,0,745.347,330.079Z" transform="translate(-524.561 -258.353)" fill="#fff"/>
  <rect id="Rectángulo_148217" data-name="Rectángulo 148217" width="7.547" height="3.527" transform="translate(220.716 66.059) rotate(-26)" fill="#fff"/>
  <rect id="Rectángulo_148218" data-name="Rectángulo 148218" width="2.715" height="3.312" transform="translate(229.054 62.471) rotate(64)" fill="#fff"/>
  <path id="Trazado_12395" data-name="Trazado 12395" d="M721.44,369.593a3.012,3.012,0,0,1-.909-2.453l-7.217,3.769s-1.5,2.057,8.089-1.305Z" transform="translate(-524.561 -289.839)" fill="#58bab0"/>
  <path id="Trazado_12396" data-name="Trazado 12396" d="M838.781,319.78l4.755-2.321-1.545-3.169-4.661,2.272a4.778,4.778,0,0,0,1.451,3.219Z" transform="translate(-614.492 -251.541)" fill="#58bab0"/>
  <path id="Trazado_12397" data-name="Trazado 12397" d="M831.685,314.232l-6.955,1.222,2.23-82.725h2.525Z" transform="translate(-597.652 -168.651)" fill="#fff"/>
  <circle id="Elipse_402" data-name="Elipse 402" cx="2.307" cy="2.307" r="2.307" transform="translate(228.551 60.767)" fill="#58bab0"/>
  <path id="Trazado_12398" data-name="Trazado 12398" d="M288.242,181.695c-.218,1.206-.961,3.753-3.362,3.689a3.354,3.354,0,0,1-3.2-3.477l.691-24.962.223-8.139s1.189-2.252,2.373,7.844v.036l3.288,23.954A3.458,3.458,0,0,1,288.242,181.695Z" transform="translate(-211.833 -131.465)" fill="#fff"/>
  <rect id="Rectángulo_148219" data-name="Rectángulo 148219" width="3.527" height="7.547" transform="translate(71.282 52.65)" fill="#fff"/>
  <rect id="Rectángulo_148220" data-name="Rectángulo 148220" width="2.715" height="3.312" transform="translate(71.714 58.404)" fill="#fff"/>
  <path id="Trazado_12399" data-name="Trazado 12399" d="M286.8,156.7a3.02,3.02,0,0,0-2.6.259l.223-8.139s1.189-2.252,2.373,7.844Z" transform="translate(-213.659 -131.472)" fill="#58bab0"/>
  <path id="Trazado_12400" data-name="Trazado 12400" d="M290.417,285.044v5.286H286.89v-5.179A4.76,4.76,0,0,1,290.417,285.044Z" transform="translate(-215.608 -230.139)" fill="#58bab0"/>
  <path id="Trazado_12401" data-name="Trazado 12401" d="M324.153,330.079c-.988-.724-2.952-2.508-1.842-4.639a3.351,3.351,0,0,1,4.526-1.349l22.132,11.564,7.219,3.769s1.5,2.057-8.092-1.305h-.036L325.1,330.577A3.415,3.415,0,0,1,324.153,330.079Z" transform="translate(-241.038 -258.354)" fill="#fff"/>
  <rect id="Rectángulo_148221" data-name="Rectángulo 148221" width="3.527" height="7.547" transform="translate(74.858 65.921) rotate(-64)" fill="#fff"/>
  <rect id="Rectángulo_148222" data-name="Rectángulo 148222" width="2.715" height="3.312" transform="translate(77.826 63.925) rotate(116)" fill="#fff"/>
  <path id="Trazado_12402" data-name="Trazado 12402" d="M416.7,369.593a3.012,3.012,0,0,0,.909-2.453l7.219,3.769s1.5,2.057-8.092-1.305Z" transform="translate(-309.677 -289.839)" fill="#58bab0"/>
  <path id="Trazado_12403" data-name="Trazado 12403" d="M304.635,319.78l-4.755-2.321,1.547-3.169,4.659,2.272A4.766,4.766,0,0,1,304.635,319.78Z" transform="translate(-225.022 -251.541)" fill="#58bab0"/>
  <path id="Trazado_12404" data-name="Trazado 12404" d="M172.187,330.078c.991-.724,2.954-2.508,1.845-4.639a3.354,3.354,0,0,0-4.529-1.349l-22.132,11.564-7.217,3.769s-1.5,2.057,8.089-1.305h.036l22.96-7.541A3.4,3.4,0,0,0,172.187,330.078Z" transform="translate(-109.212 -258.353)" fill="#fff"/>
  <rect id="Rectángulo_148223" data-name="Rectángulo 148223" width="7.547" height="3.527" transform="translate(62.904 66.058) rotate(-26)" fill="#fff"/>
  <rect id="Rectángulo_148224" data-name="Rectángulo 148224" width="2.715" height="3.312" transform="translate(71.245 62.473) rotate(64)" fill="#fff"/>
  <path id="Trazado_12405" data-name="Trazado 12405" d="M148.28,369.593a3.031,3.031,0,0,1-.909-2.453l-7.217,3.769s-1.5,2.057,8.089-1.305Z" transform="translate(-109.212 -289.839)" fill="#58bab0"/>
  <path id="Trazado_12406" data-name="Trazado 12406" d="M265.621,319.78l4.755-2.321-1.545-3.169-4.661,2.272A4.791,4.791,0,0,0,265.621,319.78Z" transform="translate(-199.144 -251.541)" fill="#58bab0"/>
  <path id="Trazado_12407" data-name="Trazado 12407" d="M258.612,314.232H251.69l2.2-81.5h2.522Z" transform="translate(-182.391 -168.651)" fill="#fff"/>
  <circle id="Elipse_403" data-name="Elipse 403" cx="2.307" cy="2.307" r="2.307" transform="translate(70.739 60.767)" fill="#58bab0"/>
  <path id="Trazado_12408" data-name="Trazado 12408" d="M370.054,637.707a40.672,40.672,0,0,1-39.222,29.921H123.484a51.843,51.843,0,0,1-46.234-28.45h0s30.053-41.57,108.1-14.411c64.8,22.547,94.685,1.225,102.976-6.666a9.158,9.158,0,0,1,6.746-2.5c15.879.752,70.883,4.6,74.988,22.1Z" transform="translate(-63.69 -469.859)" fill="#fff"/>
  <ellipse id="Elipse_404" data-name="Elipse 404" cx="33.569" cy="3.94" rx="33.569" ry="3.94" transform="translate(24.012 192.35)" fill="#58bab0" opacity="0.1"/>
  <path id="Trazado_12409" data-name="Trazado 12409" d="M208.628,573.2a8.7,8.7,0,0,1-3.6-1.313l-.107-.085a1.318,1.318,0,0,0,.184-.421,2.121,2.121,0,0,1-.234-.958,2.15,2.15,0,0,0-.187-.909v-1.547a2.835,2.835,0,0,1-.518-1.776c-.047-1.275-.094-7.558-.094-7.558a2.953,2.953,0,0,1-.047-1c.047-.727.047-1,.047-1a2.753,2.753,0,0,1-.14-1.322,1.681,1.681,0,0,0-.33-1.184l.7-3.458s.391-11.947-.746-15.548v-.066c.1-2.324-1.313-6.192-.515-8.877s.892-3.279.892-3.279-3.519-8.833-4.405-10.925a25.7,25.7,0,0,0-1.878-3.932q-.083-.118-.165-.223c-.03-.039-.061-.077-.091-.11a2.439,2.439,0,0,0,.339-1.052c.05-.65-.044-1.4.43-1.859a3.632,3.632,0,0,1,.581-.388,2.332,2.332,0,0,0,1.033-2.23,3.8,3.8,0,0,0-.942-1.809,5.061,5.061,0,0,0-1.547-4.631h0v-.259a2.9,2.9,0,0,0-.551-1.759l.132.094c-.074-.066-.146-.129-.223-.193a1.558,1.558,0,0,0-.369-.275,6.883,6.883,0,0,0-7.159-.372,4,4,0,0,0-1.4,1.242c-.735,1.134-.551,2.6-.931,3.891a13.02,13.02,0,0,1-1.96,3.323,4.855,4.855,0,0,0-1.052,3.6c.2.911.845,1.729.826,2.662a2.1,2.1,0,0,1-1.845,1.949h-.025a1.882,1.882,0,0,1-.275.022,6.851,6.851,0,0,0,3.029.967c-.022.083-.044.165-.063.25-.862,3.252-1.63,7.382-1.63,7.382a20.186,20.186,0,0,1-.564,7.464c-1.079,3.279-.939,10.017-.939,10.017s3-1.55,3.191-.551,0,1.275,0,1.275.614.311,1.335.586l-.03.4-.132,1.79a2,2,0,0,0,.165,1.1,4.359,4.359,0,0,1,0,1.867s-.22.138,0,.776a2.61,2.61,0,0,1-.173,1.547s-.275,3.414-.311,4.13a14.259,14.259,0,0,1-.939,2.778s.8,1,0,1.137-.892,1.377-.892,1.377-.939.774-.939,1.046a21.587,21.587,0,0,0-5.209,11.336s-.986.911-.845,1.776c.08.49-.08.658-.234.713.173.022.363.135.275.551-.14.727-.515,2.277-.515,2.277h.066a8.33,8.33,0,0,0-2.062,3.687.841.841,0,0,1-.016.165l-.424.955,3.709,1.652.328-.5a7.977,7.977,0,0,0,3.522,2.274,4.744,4.744,0,0,0,.983.107,8.68,8.68,0,0,0,3.045-.609s1.36-1.682-2.161-2c0,0-2.062-2.368-1.875-3.37a9.89,9.89,0,0,0,.129-1.275v-.275l.24.036.044-.763a.653.653,0,0,0,.14-.457c0-.317-.275-.363,0-.551s.275,0,.275-.454-.187-.319.234-.774-.047-1.275-.047-1.275a2.322,2.322,0,0,0,.939-1.685c-.047-.955,3.144-7.01,3.8-7.239s.7-1.412.7-1.412.892.182,1.173,0a10.886,10.886,0,0,0,1.173-1.591s3.579-9.015,3.615-12.429l.234-.774s1.363,1.776,1.173,3.051a2.577,2.577,0,0,0,1.041,2.183V552.2a11.289,11.289,0,0,1,.226,2.048c-.047.636.551,1.275.325,1.82a3.139,3.139,0,0,0,0,1.5s-.05,1.275,0,1.638-.185,4.551,1.038,6.374a2.928,2.928,0,0,1,0,2.183c-.515.865.468,1.732.468,1.732a1.611,1.611,0,0,0,0,1.729,2.239,2.239,0,0,1,.438,1.613,4.655,4.655,0,0,0-.017,2.985v.019l.11,1.3,3.6-.275v-.727a13.331,13.331,0,0,0,4.744.3,4.51,4.51,0,0,0,3.142-1.71C211.117,574.743,212.571,572.241,208.628,573.2Z" transform="translate(-134.243 -380.422)" fill="url(#linear-gradient)"/>
  <path id="Trazado_12410" data-name="Trazado 12410" d="M274.718,780.262a4.318,4.318,0,0,1-3.029,1.7,12.518,12.518,0,0,1-4.579-.3v.732l-3.472.275-.107-1.294v-.022a4.827,4.827,0,0,1,.025-3.015,10.976,10.976,0,0,1,.43-1.289s2.99-2.539,3.987-.633a3.087,3.087,0,0,0,.878,1,8.279,8.279,0,0,0,3.472,1.308C276.122,777.771,274.718,780.262,274.718,780.262Z" transform="translate(-198.51 -585.919)" fill="#65617d"/>
  <path id="Trazado_12411" data-name="Trazado 12411" d="M271.2,781.513s0,2.357,1.721,2.313,1.952-.939,1.407-1.545a7.434,7.434,0,0,1-.953-1.4Z" transform="translate(-204.238 -589.662)" opacity="0.1"/>
  <path id="Trazado_12412" data-name="Trazado 12412" d="M187.922,786.695a8.172,8.172,0,0,1-2.949.606,4.624,4.624,0,0,1-.95-.1,7.673,7.673,0,0,1-3.4-2.269l-.317.5L176.73,783.8l.4-.955.017-.162A8.371,8.371,0,0,1,179.145,779c.4-.482.71-.785.71-.785l4.306.633s.017.551,0,1.223a9.76,9.76,0,0,1-.127,1.269c-.179,1,1.812,3.354,1.812,3.354C189.236,785.024,187.922,786.695,187.922,786.695Z" transform="translate(-135.779 -587.734)" fill="#65617d"/>
  <path id="Trazado_12413" data-name="Trazado 12413" d="M185.506,770.772a.452.452,0,0,1-.226.016A.666.666,0,0,1,185.506,770.772Z" transform="translate(-141.975 -582.334)" fill="#444053"/>
  <path id="Trazado_12414" data-name="Trazado 12414" d="M190.386,778.854s.017.551,0,1.223l-5.066-.826s.025-.1.061-.256c.4-.482.71-.785.71-.785Z" transform="translate(-142.004 -587.727)" opacity="0.1"/>
  <path id="Trazado_12415" data-name="Trazado 12415" d="M269.439,777.386c-.765,1.77-5.319,1.352-5.319,1.352a2.177,2.177,0,0,0,.025-.432,10.964,10.964,0,0,1,.43-1.289s2.99-2.539,3.987-.633A3.086,3.086,0,0,0,269.439,777.386Z" transform="translate(-199.108 -585.89)" opacity="0.1"/>
  <path id="Trazado_12416" data-name="Trazado 12416" d="M212.367,680.976c-.452,2.037-5.394,1.586-5.394,1.586a2.343,2.343,0,0,0-.407-1.724,1.641,1.641,0,0,1,0-1.721s-.953-.862-.452-1.724a2.98,2.98,0,0,0,0-2.175c-1.181-1.812-.953-5.983-1-6.333s0-1.63,0-1.63a3.152,3.152,0,0,1,0-1.5c.223-.545-.358-1.178-.314-1.812a11.721,11.721,0,0,0-.217-2.04v-3.855a2.6,2.6,0,0,1-1-2.175c.182-1.269-1.134-3.029-1.134-3.029l-.226.771c-.044,3.4-3.489,12.371-3.489,12.371a10.8,10.8,0,0,1-1.134,1.589c-.273.182-1.132,0-1.132,0s-.047,1.178-.68,1.4-3.717,6.253-3.67,7.206a2.311,2.311,0,0,1-.909,1.677s.454.826.047,1.269-.229.317-.229.771,0,.275-.275.451,0,.229,0,.551a.645.645,0,0,1-.138.452l-.041.763-5.306-.851s.363-1.542.5-2.269c.08-.424-.1-.537-.275-.551.151-.055.306-.223.229-.708-.138-.862.826-1.768.826-1.768a21.745,21.745,0,0,1,5.03-11.289c0-.275.906-1.041.906-1.041s.091-1.225.862-1.36,0-1.134,0-1.134a14.937,14.937,0,0,0,.906-2.753c.044-.716.3-4.13.3-4.13a2.675,2.675,0,0,0,.168-1.539c-.212-.633,0-.771,0-.771a4.367,4.367,0,0,0,0-1.859,2.037,2.037,0,0,1-.16-1.088l.129-1.784.187-2.657s14.1-2.434,15.653-.487a2.48,2.48,0,0,1,.366.793c1.1,3.579.721,15.477.721,15.477l-.68,3.444a1.723,1.723,0,0,1,.319,1.179,2.8,2.8,0,0,0,.135,1.316s0,.275-.047,1a3.029,3.029,0,0,0,.047,1s.044,6.253.091,7.522a2.894,2.894,0,0,0,.5,1.768v1.542a2.227,2.227,0,0,1,.179.906A2.134,2.134,0,0,0,212.367,680.976Z" transform="translate(-141.961 -489.984)" fill="#444053"/>
  <path id="Trazado_12417" data-name="Trazado 12417" d="M184.974,799.038a4.637,4.637,0,0,1-.95-.1,7.672,7.672,0,0,1-3.4-2.269l-.317.5-3.579-1.633.4-.961.017-.163,3.7,1.886A16.736,16.736,0,0,1,184.974,799.038Z" transform="translate(-135.779 -599.466)" opacity="0.1"/>
  <path id="Trazado_12418" data-name="Trazado 12418" d="M272.288,796.826a12.518,12.518,0,0,1-4.579-.3v.732l-3.472.275-.107-1.294c1.1.019,2.872.039,3.643-.022A16.912,16.912,0,0,1,272.288,796.826Z" transform="translate(-199.115 -600.778)" opacity="0.1"/>
  <path id="Trazado_12419" data-name="Trazado 12419" d="M191.047,766.527a1.244,1.244,0,0,1,.534.069,3.733,3.733,0,0,1,.507.363,2.1,2.1,0,0,1,.336.223c.132.129.187.322.319.452.242.24.642.184.964.3a.085.085,0,0,1,.08.066c.006.036-.025.066-.055.088a.529.529,0,0,1-.523,0,2.1,2.1,0,0,1-.438-.331,2.964,2.964,0,0,0-.851-.529c-.427-.168-1.17-.215-1.44-.633C190.607,766.5,190.882,766.53,191.047,766.527Z" transform="translate(-145.743 -579.257)" opacity="0.1"/>
  <path id="Trazado_12420" data-name="Trazado 12420" d="M189.879,769.933a1.307,1.307,0,0,1,.275.113l.465.234a1.724,1.724,0,0,1-.95-.212,2.738,2.738,0,0,1-.3-.143,1.538,1.538,0,0,1,.509.008Z" transform="translate(-144.939 -581.71)" opacity="0.1"/>
  <path id="Trazado_12421" data-name="Trazado 12421" d="M191.218,772.772a1.242,1.242,0,0,1,.3.025,1.5,1.5,0,0,1,.479.275,1.872,1.872,0,0,0,1.2.416.524.524,0,0,1-.275.047h-.975a1.3,1.3,0,0,1-.727-.168c-.165-.08-.848-.275-.854-.5S191.053,772.772,191.218,772.772Z" transform="translate(-145.664 -583.756)" opacity="0.1"/>
  <path id="Trazado_12422" data-name="Trazado 12422" d="M274,775.312a5.43,5.43,0,0,0,.9.025,1.716,1.716,0,0,0,.887-.275c.262-.2.207-.408-.127-.421a2.378,2.378,0,0,0-.895.22,2.7,2.7,0,0,0-.418.212C274.275,775.1,274.05,775.315,274,775.312Z" transform="translate(-206.267 -585.14)" opacity="0.1"/>
  <path id="Trazado_12423" data-name="Trazado 12423" d="M274.557,778.88c-.027.11-.143.171-.248.212a2.84,2.84,0,0,1-.8.176c-.069,0-.262,0-.237-.107s.311-.074.38-.083A6.892,6.892,0,0,0,274.557,778.88Z" transform="translate(-205.74 -588.212)" opacity="0.1"/>
  <path id="Trazado_12424" data-name="Trazado 12424" d="M265.673,778.2a1.842,1.842,0,0,1,1.1.217.056.056,0,0,1,.022.028.027.027,0,0,1,0,.025.377.377,0,0,1-.369.2,1.721,1.721,0,0,1-.43-.107,2.223,2.223,0,0,0-.71-.107,1.808,1.808,0,0,1-.322,0c-.319-.055-.215-.184.03-.212A6.441,6.441,0,0,1,265.673,778.2Z" transform="translate(-199.575 -587.709)" opacity="0.1"/>
  <path id="Trazado_12425" data-name="Trazado 12425" d="M218.767,712.205a2.8,2.8,0,0,0-1.547-.507,2.2,2.2,0,0,1,1.547.507Z" transform="translate(-165.121 -539.525)" opacity="0.1"/>
  <path id="Trazado_12426" data-name="Trazado 12426" d="M218.655,706.874a2.233,2.233,0,0,1,1.156.33l-.419-.116a3.953,3.953,0,0,0-.774-.162c-.151-.014-.3,0-.454-.017s-.344-.044-.515-.05C217.983,706.876,218.319,706.857,218.655,706.874Z" transform="translate(-165.432 -536.022)" opacity="0.1"/>
  <path id="Trazado_12427" data-name="Trazado 12427" d="M222,709.11c.127.025.275.08.3.209a5,5,0,0,0-1.008-.366c-.184-.066-.776-.325-.911-.146C220.9,708.947,221.462,709,222,709.11Z" transform="translate(-167.411 -537.388)" opacity="0.1"/>
  <path id="Trazado_12428" data-name="Trazado 12428" d="M224.762,692.812a3.8,3.8,0,0,0,1.561-1,1.239,1.239,0,0,1-.575,1.019,3.241,3.241,0,0,1-1.137.424,5.012,5.012,0,0,0-1.167.35c-.179.091-.738.62-.914.592-.223-.033.132-.385.215-.449A7.826,7.826,0,0,1,224.762,692.812Z" transform="translate(-168.916 -525.116)" opacity="0.1"/>
  <path id="Trazado_12429" data-name="Trazado 12429" d="M264.853,716.121c-.193-.066-2.533.388-2.39-.066.088-.275.848-.176,1.038-.168A4.8,4.8,0,0,1,264.853,716.121Z" transform="translate(-197.903 -542.546)" opacity="0.1"/>
  <path id="Trazado_12430" data-name="Trazado 12430" d="M234.809,506.4a5.165,5.165,0,1,1-1.558-3.7A5.165,5.165,0,0,1,234.809,506.4Z" transform="translate(-170.381 -387.016)" fill="#fbbebe"/>
  <path id="Trazado_12431" data-name="Trazado 12431" d="M233.009,526.378s-1.677,4.9-.724,5.892-6.845,1.586-6.845,1.586,3.263-5.845,2.946-7.3S233.009,526.378,233.009,526.378Z" transform="translate(-171.078 -404.861)" fill="none" stroke="#58bab0" stroke-width="1"/>
  <path id="Trazado_12432" data-name="Trazado 12432" d="M235.68,644.88v.341c-.091,2.313-4.215,6.98-5.168,6.209s-7.434-2.313-7.434-2.313-.953-1.5-1.949-1.5a5.1,5.1,0,0,1-1.638-.424l.187-2.657s14.094-2.415,15.647-.468a2.477,2.477,0,0,1,.355.807Z" transform="translate(-166.766 -489.974)" opacity="0.1"/>
  <path id="Trazado_12433" data-name="Trazado 12433" d="M224.233,574.412c-.047,1.159-1.1,2.908-2.266,4.268s-2.426,2.324-2.9,1.927a4.573,4.573,0,0,0-1.123-.531c-2.145-.79-6.308-1.781-6.308-1.781s-.953-1.5-1.949-1.5a9.223,9.223,0,0,1-2.9-1s.182-.275,0-1.269-3.081.551-3.081.551-.138-6.707.906-9.973a20.75,20.75,0,0,0,.551-7.434s.746-4.108,1.556-7.354c.487-1.947,1-3.579,1.39-3.838,1.044-.68,6.481,0,6.481,0a20.326,20.326,0,0,1,3.128.275,1.377,1.377,0,0,1,.653.531c.052.072.107.146.16.226a26.391,26.391,0,0,1,1.814,3.913c.862,2.084,4.262,10.876,4.262,10.876s-.091.589-.862,3.263S224.324,572.1,224.233,574.412Z" transform="translate(-155.322 -419.585)" fill="#65617d"/>
  <path id="Trazado_12434" data-name="Trazado 12434" d="M257.8,658.42l1.633,1.591s1.5,5.16-.454,4.708-3.579-3.3-3.579-3.3Z" transform="translate(-192.789 -500.919)" fill="#fbbebe"/>
  <path id="Trazado_12435" data-name="Trazado 12435" d="M263.114,567.347c-3.855-.044-4.849-5.438-4.849-5.438s-.275-5.347-.771-6.333a10.166,10.166,0,0,1-.454-3.007,26.67,26.67,0,0,1,1.814,3.913C259.716,558.556,263.114,567.347,263.114,567.347Z" transform="translate(-193.977 -424.214)" opacity="0.1"/>
  <path id="Trazado_12436" data-name="Trazado 12436" d="M263.621,565.86c-3.855-.044-4.846-5.441-4.846-5.441s-.275-5.347-.771-6.333a10.164,10.164,0,0,1-.454-3.007,26.393,26.393,0,0,1,1.814,3.913C260.221,557.069,263.621,565.86,263.621,565.86Z" transform="translate(-194.347 -423.134)" fill="#65617d"/>
  <path id="Trazado_12437" data-name="Trazado 12437" d="M240.822,552.836s-1.134-3.081-2.993,0a15.7,15.7,0,0,0-1.9,6.98l-.317,8.519a5.091,5.091,0,0,1,.567,1.768,8.418,8.418,0,0,0,1.1,2.448s.275,3.579,1.313,4.169l1,2.946a5.52,5.52,0,0,0,.727,2.72,2.275,2.275,0,0,1,.322,1.96l4.028-1.41s-.454.162,0-1.055a4.321,4.321,0,0,0-.275-2.806s-2.583-5.62-2.9-6.435a5.1,5.1,0,0,1-.589-2.72c.182-.953.036-11.057.275-12.6A17.636,17.636,0,0,0,240.822,552.836Z" transform="translate(-178.447 -423.414)" opacity="0.1"/>
  <path id="Trazado_12438" data-name="Trazado 12438" d="M242.342,551.286s-1.134-3.081-2.993,0a15.7,15.7,0,0,0-1.9,6.98l-.317,8.519a5.091,5.091,0,0,1,.567,1.768A8.419,8.419,0,0,0,238.8,571s.275,3.579,1.313,4.169l1,2.946a5.52,5.52,0,0,0,.727,2.72,2.28,2.28,0,0,1,.325,1.961l4.025-1.413s-.454.165,0-1.052a4.322,4.322,0,0,0-.275-2.806s-2.583-5.619-2.9-6.435a5.1,5.1,0,0,1-.589-2.72c.182-.953.039-11.057.275-12.6A17.73,17.73,0,0,0,242.342,551.286Z" transform="translate(-179.549 -422.291)" fill="#444053"/>
  <path id="Trazado_12439" data-name="Trazado 12439" d="M255.152,651.543a1.522,1.522,0,0,1,.493.146c.124.066.231.162.352.231a.983.983,0,0,0,.465.127c-.182,0-.363.019-.551.022a.96.96,0,0,1-.333-.041,1.351,1.351,0,0,1-.275-.184,1.483,1.483,0,0,0-.361-.2c-.1-.041-.2-.055-.242-.154a2.794,2.794,0,0,1,.452.052Z" transform="translate(-192.281 -495.898)" opacity="0.1"/>
  <path id="Trazado_12440" data-name="Trazado 12440" d="M259.805,655.962c.171,0,.341-.039.515-.05a4.231,4.231,0,0,1,.746.039,2.1,2.1,0,0,1-1.178.209.7.7,0,0,0-.355,0c-.127.052-.493.468-.526.1S259.6,655.97,259.805,655.962Z" transform="translate(-195.401 -499.1)" opacity="0.1"/>
  <path id="Trazado_12441" data-name="Trazado 12441" d="M252.644,498.989,252,498.51a1.239,1.239,0,0,1,.2.091,1.506,1.506,0,0,1,.369.289c.072.061.143.127.212.19Z" transform="translate(-190.325 -385.038)" opacity="0.1"/>
  <path id="Trazado_12442" data-name="Trazado 12442" d="M226.354,547.355a1.6,1.6,0,0,1-.551.672,1.128,1.128,0,0,1-.485.187,1.894,1.894,0,0,1-.732-.077,9.045,9.045,0,0,1-.889-.275,14.677,14.677,0,0,0-1.748-.595,2.792,2.792,0,0,0-2.61.529c-.57.581-.71,1.484-1.28,2.065a3.582,3.582,0,0,1-3.095.578l-.253-.036c.487-1.947,1-3.579,1.39-3.838,1.044-.68,6.481,0,6.481,0a20.326,20.326,0,0,1,3.128.275A1.377,1.377,0,0,1,226.354,547.355Z" transform="translate(-163.302 -419.643)" opacity="0.1"/>
  <path id="Trazado_12443" data-name="Trazado 12443" d="M224.46,506.4a5.165,5.165,0,0,1,8.772-3.7h0a10.2,10.2,0,0,0,.074,2.69,6.594,6.594,0,0,0,1.36,2.128A5.165,5.165,0,0,1,224.46,506.4Z" transform="translate(-170.367 -387.015)" opacity="0.1"/>
  <path id="Trazado_12444" data-name="Trazado 12444" d="M218.386,495.2a6.448,6.448,0,0,0-7.492-.843,3.88,3.88,0,0,0-1.349,1.236c-.71,1.132-.529,2.591-.9,3.874a12.852,12.852,0,0,1-1.892,3.3,4.939,4.939,0,0,0-1.016,3.579c.19.909.826,1.724.8,2.651a2.057,2.057,0,0,1-1.991,1.955,6.818,6.818,0,0,0,3.029.977,3.59,3.59,0,0,0,3.095-.581c.57-.578.71-1.484,1.28-2.062a2.777,2.777,0,0,1,2.61-.529c.906.209,1.74.647,2.638.881a1.947,1.947,0,0,0,.732.074,1.782,1.782,0,0,0,1.283-1.74c.05-.647-.044-1.393.416-1.85a3.508,3.508,0,0,1,.551-.388,2.343,2.343,0,0,0,.994-2.219c-.212-1.536-1.875-2.495-2.31-3.984a10.179,10.179,0,0,1-.074-2.687,2.3,2.3,0,0,0-1.2-2.23" transform="translate(-155.939 -381.431)" fill="#444053"/>
  <path id="Trazado_12445" data-name="Trazado 12445" d="M220.9,506.277c-.215-1.536-1.878-2.495-2.313-3.984a10.064,10.064,0,0,1-.072-2.687,2.952,2.952,0,0,0-.551-1.751l.127.094q-.1-.1-.215-.19a1.457,1.457,0,0,0-.355-.275c-.077-.058-.157-.11-.234-.162l.124.113-.127-.094a2.946,2.946,0,0,1,.551,1.751,9.527,9.527,0,0,0,.072,2.687c.435,1.49,2.1,2.448,2.313,3.984a2.348,2.348,0,0,1-1,2.219,3.458,3.458,0,0,0-.551.388c-.457.457-.366,1.2-.416,1.85a1.783,1.783,0,0,1-1.28,1.74,1.959,1.959,0,0,1-.735-.074c-.9-.234-1.732-.675-2.638-.881a2.787,2.787,0,0,0-2.61.529c-.57.578-.71,1.481-1.28,2.062a3.578,3.578,0,0,1-3.092.581,9.5,9.5,0,0,1-2.082-.479,1.734,1.734,0,0,1-.275.022,6.818,6.818,0,0,0,3.029.977,3.583,3.583,0,0,0,3.092-.581c.57-.578.71-1.484,1.28-2.062a2.781,2.781,0,0,1,2.61-.529c.9.209,1.74.647,2.638.881a1.961,1.961,0,0,0,.735.074,1.783,1.783,0,0,0,1.28-1.74c.05-.647-.041-1.393.416-1.85a3.631,3.631,0,0,1,.551-.388A2.346,2.346,0,0,0,220.9,506.277Z" transform="translate(-155.729 -384.176)" opacity="0.1"/>
</svg>
