<svg id="Grupo_76562" data-name="Grupo 76562" xmlns="http://www.w3.org/2000/svg" width="154.431" height="183.866" viewBox="0 0 154.431 183.866">
  <path id="Trazado_12152" data-name="Trazado 12152" d="M193.759,705.623c-5.109-1.411-7.289,6.347-2.193,7.8C196.675,714.838,198.855,707.08,193.759,705.623Z" transform="translate(-165.775 -540.298)" fill="#3f3d56"/>
  <path id="Trazado_12153" data-name="Trazado 12153" d="M264.01,730.388c-5.109-1.411-7.289,6.347-2.193,7.8C266.926,739.6,269.106,731.844,264.01,730.388Z" transform="translate(-207.699 -555.078)" fill="#3f3d56"/>
  <path id="Trazado_12154" data-name="Trazado 12154" d="M277.82,523.025l-.079-.022-13.159,35.727-1.735-.488L276.1,522.259h0a2.434,2.434,0,0,1,2.035-2.275,8.763,8.763,0,0,1,9.249,4.8l-.026.039L273.9,561.349l-1.735-.488,13.058-35.451C281.252,521.478,277.82,523.025,277.82,523.025Z" transform="translate(-210.045 -429.539)" fill="#3f3d56"/>
  <path id="Trazado_12155" data-name="Trazado 12155" d="M220.049,654.807c-7.757-.118-17.349-4.31-23.889-7.452a8.152,8.152,0,0,1-4.32-9.571l8.476-30.156a10.244,10.244,0,0,1,5.088-6.276,9.809,9.809,0,0,1,7.827-.6c.3.136,8.537,2.441,13.986,3.966,3.205.9,5.522,1.545,5.677,1.6.128.042,5.889,2.022,4.867,8.981-.785,5.345-6.711,25.042-9.223,33.262a8.816,8.816,0,0,1-8.359,6.253Z" transform="translate(-167.485 -477.487)" fill="#58bab0"/>
  <path id="Trazado_12156" data-name="Trazado 12156" d="M69.845,500.58l10.989-37.194,25.841,7.3.154-.546-26.381-7.455-.079.269L69.3,500.419Z" transform="translate(-41.358 -335.687)" fill="#3f3d56"/>
  <path id="Trazado_12163" data-name="Trazado 12163" d="M303.437,508.2a3.685,3.685,0,0,0-2.29-5.165l-.708-13.074-5.469,4.048,1.511,11.8a3.7,3.7,0,0,0,6.956,2.4Z" transform="translate(-229.216 -411.698)" fill="#ffb7b7"/>
  <path id="Trazado_12164" data-name="Trazado 12164" d="M420.063,513.874a3.685,3.685,0,0,1,1.466-5.456l-1.316-13.027,6.028,3.156.325,11.887a3.7,3.7,0,0,1-6.5,3.44Z" transform="translate(-303.471 -414.937)" fill="#ffb7b7"/>
  <path id="Trazado_12165" data-name="Trazado 12165" d="M209.374,567.129h4.306l2.049-16.611h-6.356Z" transform="translate(-124.951 -388.103)" fill="#ffb7b7"/>
  <path id="Trazado_12166" data-name="Trazado 12166" d="M338.545,736.367h8.482a5.405,5.405,0,0,1,5.4,5.4v.176H338.545Z" transform="translate(-255.221 -558.748)" fill="#2f2e41"/>
  <path id="Trazado_12167" data-name="Trazado 12167" d="M263.319,561.26l4.211.9,5.484-15.814-6.215-1.331Z" transform="translate(-157.145 -384.82)" fill="#ffb7b7"/>
  <path id="Trazado_12168" data-name="Trazado 12168" d="M391.55,729.46l8.293,1.777h0A5.405,5.405,0,0,1,404,737.655l-.037.172-13.578-2.909Z" transform="translate(-286.155 -554.626)" fill="#2f2e41"/>
  <path id="Trazado_12169" data-name="Trazado 12169" d="M318.956,504.094a57.472,57.472,0,0,0-.095,30.174l4.567,19.182,1.133,42.444,9.248-2.969,3.768-64.739,17.355,29.458L345.8,592.925l10.5.343,11.343-38.155-9.973-35.6-1.827-8.678Z" transform="translate(-242.298 -420.131)" fill="#2f2e41"/>
  <path id="Trazado_12170" data-name="Trazado 12170" d="M358.949,378.341l-9.2-5.243-15.914-.92-11.039,5.8,4.486,30.777s-8.556,12.28-5.437,20.461c3.85,10.1,37.517,15.366,36.859,5.511-1.039-15.552-2.644-14.479-3.821-22.106-1.291-8.368,7.744-19.1,7.744-19.1Z" transform="translate(-244.847 -341.405)" fill="#cbcbcb"/>
  <path id="Trazado_12171" data-name="Trazado 12171" d="M306.491,387.5l-1.025-4.444s-4.375.566-7.406,9.034-8.421,26.318-8.421,26.318l.281,6.485s-2.077,2.4-.644,3.5-2.588,2.582-.552,4.14a5.844,5.844,0,0,1,2.134,5.979l6.255-1.932-.46-10.211,2.478-8.049,6.623-20.146Z" transform="translate(-225.137 -347.898)" fill="#cbcbcb"/>
  <path id="Trazado_12172" data-name="Trazado 12172" d="M406.3,389.473l1.393-4.31s2.566-1.05,4.46,4.867,2.793,20.893,2.793,20.893l3.68,17.85s1.375,2.273.644,2.925,3.211,1.568.92,2.775.2-.26-.658,2.492a3.538,3.538,0,0,0,.015,2.758l-7.083-1.425-1.932-9.15-4.382-17.012Z" transform="translate(-295.566 -349.111)" fill="#cbcbcb"/>
  <circle id="Elipse_383" data-name="Elipse 383" cx="12.216" cy="12.216" r="12.216" transform="translate(84.764 2.47)" fill="#2f2e41"/>
  <path id="Trazado_12173" data-name="Trazado 12173" d="M324.518,302.943a25.616,25.616,0,0,0-9.32-6.027,13.112,13.112,0,0,0-7.06-.876,6.729,6.729,0,0,0-5.24,4.414,8.331,8.331,0,0,0,.851,5.7c.834,1.779,1.947,3.428,2.621,5.273a12.036,12.036,0,0,1-12.111,16.14c2.314.31,4.447,1.4,6.709,1.977s4.932.54,6.613-1.081c1.779-1.715,1.814-4.5,1.728-6.971l-.384-11.01a13.986,13.986,0,0,1,.554-5.55,4.766,4.766,0,0,1,4.152-3.261,6.811,6.811,0,0,1,3.814,1.72,7.792,7.792,0,0,0,3.757,1.879c1.414.126,3.028-.92,2.922-2.336Z" transform="translate(-228.792 -295.859)" fill="#2f2e41"/>
  <circle id="Elipse_384" data-name="Elipse 384" cx="8.993" cy="8.993" r="8.993" transform="translate(86.005 22.754) rotate(-61.337)" fill="#ffb7b7"/>
  <path id="Trazado_12174" data-name="Trazado 12174" d="M375.4,327.1H362.41l-.133-1.864-.666,1.864h-2l-.264-3.7-1.32,3.7H354.16v-.183a9.714,9.714,0,0,1,9.7-9.7h1.831a9.714,9.714,0,0,1,9.7,9.7Z" transform="translate(-264.539 -308.603)" fill="#2f2e41"/>
  <path id="Trazado_12175" data-name="Trazado 12175" d="M350.823,335.773l-4.742-4.747-.8-10.508h10.467l-.259.259C351.884,324.377,347.992,329.661,350.823,335.773Z" transform="translate(-259.241 -310.575)" fill="#2f2e41"/>
  <path id="Trazado_12176" data-name="Trazado 12176" d="M285.923,750.665H132.3a.4.4,0,1,1,0-.806H285.923a.4.4,0,1,1,0,.806Z" transform="translate(-131.895 -566.8)" fill="#cbcbcb"/>
</svg>
